<svg xmlns="http://www.w3.org/2000/svg" viewBox="0 0 32 32" id="Flower-Playing-Cards--Streamline-Emojitwo" height="32" width="32">
  <desc>
    Flower Playing Cards Streamline Emoji: https://streamlinehq.com
  </desc>
  <title>flower playing cards</title>
  <path fill="#333333" d="M26.3 0H5.7C4.5 0 3.5 0.9 3.5 2.05v27.9c0 1.15 1 2.05 2.2 2.05h20.6c1.2 0 2.2 -0.9 2.2 -2.05V2.05C28.5 0.9 27.5 0 26.3 0z" stroke-width="0.5"></path>
  <path fill="#b70000" d="M25.65 1H6.35C5.2 1 4.5 1.85 4.5 2.9V17l23 12.15V3c0 -1.05 -0.7 -2 -1.85 -2z" stroke-width="0.5"></path>
  <path fill="#ffffff" d="M6 9.5a6.5 6.5 0 1 0 13 0 6.5 6.5 0 1 0 -13 0" stroke-width="0.5"></path>
  <path fill="#333333" d="M27.7 29.1H4.3V17c12 0 23.4 5.1 23.4 12.1z" stroke-width="0.5"></path>
</svg>