<svg xmlns="http://www.w3.org/2000/svg" version="1.1" viewBox="0 0 32 32" id="Ten-Of-Spades--Streamline-Emojitwo" height="32" width="32">
  <desc>
    Ten Of Spades Streamline Emoji: https://streamlinehq.com
  </desc>
  <title>Playing Card Ten Of Spades</title>
  <path d="M6.5 31.25c-1.5 0 -2.75 -1.25 -2.75 -2.75V3.5c0 -1.5 1.25 -2.75 2.75 -2.75h19c1.5 0 2.75 1.25 2.75 2.75v25c0 1.5 -1.25 2.75 -2.75 2.75H6.5z" fill="#efeded" stroke-width="0.5"></path>
  <path d="M6.5 31.25c-1.5 0 -2.75 -1.25 -2.75 -2.75V3.5c0 -1.5 1.25 -2.75 2.75 -2.75h19c1.5 0 2.75 1.25 2.75 2.75v25c0 1.5 -1.25 2.75 -2.75 2.75H6.5z" fill="#efeded" stroke-width="0.5"></path>
  <path d="M10.2333985 1.5C8.562082 3.1724945 6.7631195 4.5911171 4.5 5.083008v7.0673825c1.203002 2.393165 2.405562 4.787001 3.6103515 7.1953125C17.344911 21.0886735 19.71976 9.1473955 27.5 7.989258V2.0644531c-0.094382 -0.18775135 -0.188818 -0.3767105 -0.283203 -0.5644531Z" fill="#d0d0d0" stroke-width="0.5"></path>
  <path d="M25.5 1.5c1.1 0 2 0.9 2 2v25c0 1.1 -0.9 2 -2 2H6.5c-1.1 0 -2 -0.9 -2 -2V3.5c0 -1.1 0.9 -2 2 -2h19m0 -1.5H6.5C4.55 0 3 1.55 3 3.5v25c0 1.95 1.55 3.5 3.5 3.5h19c1.95 0 3.5 -1.55 3.5 -3.5V3.5c0 -1.95 -1.55 -3.5 -3.5 -3.5z" fill="#262626" stroke-width="0.5"></path>
  <path d="M4.5 14.666992v3.657227L10.631836 30.5h1.84082L4.5 14.666992z" fill="#3e4347" stroke-width="0.6045"></path>
  <g fill="#4d5357">
    <path d="m10.74521 14.227575 -2.0333435 0 0 -7.666705c-0.733337 0.7000035 -1.6333415 1.200006 -2.6333465 1.533341l0 -1.8333425c0.533336 -0.1666675 1.1000055 -0.5000025 1.733342 -1.000005s1.066672 -1.066672 1.3000065 -1.7000085l1.666675 0 0 10.66672zM15.745235 3.560855c1.1000055 0 1.933343 0.3666685 2.5666795 1.066672 0.733337 0.866671 1.1000055 2.3000115 1.1000055 4.266688s-0.3666685 3.400017 -1.1000055 4.266688c-0.6333365 0.7000035 -1.466674 1.066672 -2.5666795 1.066672s-2.00001 -0.400002 -2.66668 -1.1666725 -1.000005 -2.1666775 -1.000005 -4.1666875c0 -1.9666765 0.3666685 -3.3666835 1.1000055 -4.2333545 0.6333365 -0.733337 1.466674 -1.1000055 2.5666795 -1.1000055m0 1.666675c-0.266668 0 -0.5000025 0.066667 -0.7000035 0.2333345s-0.3666685 0.4333355 -0.466669 0.8333375c-0.133334 0.533336 -0.2333345 1.400007 -0.2333345 2.600013 0 1.2333395 0.066667 2.066677 0.200001 2.533346s0.3000015 0.7666705 0.5000025 0.9000045c0.200001 0.1666675 0.4333355 0.2333345 0.7000035 0.2333345s0.5000025 -0.066667 0.7000035 -0.2333345 0.3666685 -0.4333355 0.466669 -0.8333375c0.133334 -0.5000025 0.2333345 -1.3666735 0.2333345 -2.600013s-0.066667 -2.066677 -0.200001 -2.533346 -0.3000015 -0.7666705 -0.5000025 -0.933338c-0.200001 -0.133334 -0.4333355 -0.200001 -0.7000035 -0.200001" fill="#4d5357" stroke-width="0.5"></path>
  </g>
  <path d="M26.7184665 23.0718805c0 -3.4079995 -7.1 -7.3129995 -7.1 -7.3129995s-7.099999 3.905 -7.099999 7.3129995c0 2.0353325 1.704 3.762999 3.763 3.762999 0.9939995 0 1.869666 -0.3786665 2.5323325 -0.9939995l-0.0946665 0.781c-0.1183335 0.8519995 -0.7099995 1.6329995 -1.5619995 1.7749995l-1.088667 0.2366665v1.325333h7.1v-1.325333l-1.1123335 -0.2129995c-0.852 -0.142 -1.443667 -0.9229995 -1.5620005 -1.775l-0.0946665 -0.7809995c0.662667 0.615333 1.538334 0.9939995 2.532334 0.9939995 2.082666 0 3.786666 -1.7513335 3.786666 -3.786666" fill="#4d5357" stroke-width="0.2365"></path>
</svg>