<svg xmlns="http://www.w3.org/2000/svg" version="1.1" viewBox="0 0 32 32" id="Five-Of-Spades--Streamline-Emojitwo" height="32" width="32">
  <desc>
    Five Of Spades Streamline Emoji: https://streamlinehq.com
  </desc>
  <title>Playing Card Five Of Spades</title>
  <path d="M6.5 31.25c-1.5 0 -2.75 -1.25 -2.75 -2.75V3.5c0 -1.5 1.25 -2.75 2.75 -2.75h19c1.5 0 2.75 1.25 2.75 2.75v25c0 1.5 -1.25 2.75 -2.75 2.75H6.5z" fill="#efeded" stroke-width="0.5"></path>
  <path d="M25.5 1.5c1.1 0 2 0.9 2 2v25c0 1.1 -0.9 2 -2 2H6.5c-1.1 0 -2 -0.9 -2 -2V3.5c0 -1.1 0.9 -2 2 -2h19m0 -1.5H6.5C4.55 0 3 1.55 3 3.5v25c0 1.95 1.55 3.5 3.5 3.5h19c1.95 0 3.5 -1.55 3.5 -3.5V3.5c0 -1.95 -1.55 -3.5 -3.5 -3.5z" fill="#262626" stroke-width="0.5"></path>
  <path d="M25.9049085 22.2583225c0 -3.4079995 -7.1 -7.3129995 -7.1 -7.3129995s-7.099999 3.905 -7.099999 7.3129995c0 2.0353325 1.704 3.762999 3.763 3.762999 0.9939995 0 1.869666 -0.3786665 2.5323325 -0.9939995l-0.0946665 0.781c-0.1183335 0.8519995 -0.7099995 1.6329995 -1.5619995 1.7749995l-1.088667 0.2366665v1.325333h7.1v-1.325333l-1.1123335 -0.2129995c-0.852 -0.142 -1.443667 -0.9229995 -1.5620005 -1.775l-0.0946665 -0.7809995c0.662667 0.615333 1.538334 0.9939995 2.532334 0.9939995 2.082666 0 3.786666 -1.7513335 3.786666 -3.786666" fill="#4d5357" stroke-width="0.2365"></path>
  <path d="m6.5320745 11.336705 1.9 -0.2c0.0666665 0.466667 0.2 0.8333335 0.4666665 1.1 0.2666665 0.266667 0.5666665 0.4 0.9333335 0.4 0.4 0 0.733333 -0.1666665 1 -0.533333 0.2666665 -0.3333335 0.4 -0.866667 0.4 -1.566667 0 -0.6666665 -0.1333335 -1.133333 -0.4 -1.4666665 -0.266667 -0.3333335 -0.6333335 -0.5 -1.066667 -0.5 -0.533333 0 -1.033333 0.2666665 -1.4666665 0.7666665l-1.5333335 -0.233333 0.966667 -5.5333334h5.033333v1.8999999h-3.6l-0.3 1.8c0.4333335 -0.2333335 0.866667 -0.3333335 1.3 -0.3333335 0.8333335 0 1.566667 0.3333335 2.1333335 1 0.6 0.666667 0.8666665 1.5 0.8666665 2.566667 0 0.8666665 -0.233333 1.6666665 -0.7 2.333333 -0.633333 0.9333335 -1.533333 1.4 -2.7 1.4 -0.9 0 -1.6666665 -0.2666665 -2.233333 -0.8 -0.5333335 -0.533333 -0.9 -1.233333 -1 -2.1" fill="#4d5357" stroke-width="0.3335"></path>
</svg>