<svg xmlns="http://www.w3.org/2000/svg" version="1.1" viewBox="0 0 32 32" id="Seven-Of-Spades--Streamline-Emojitwo" height="32" width="32">
  <desc>
    Seven Of Spades Streamline Emoji: https://streamlinehq.com
  </desc>
  <title>Playing Card Seven Of Spades</title>
  <path d="M6.5 31.25c-1.5 0 -2.75 -1.25 -2.75 -2.75V3.5c0 -1.5 1.25 -2.75 2.75 -2.75h19c1.5 0 2.75 1.25 2.75 2.75v25c0 1.5 -1.25 2.75 -2.75 2.75H6.5z" fill="#efeded" stroke-width="0.5"></path>
  <path d="M25.5 1.5c1.1 0 2 0.9 2 2v25c0 1.1 -0.9 2 -2 2H6.5c-1.1 0 -2 -0.9 -2 -2V3.5c0 -1.1 0.9 -2 2 -2h19m0 -1.5H6.5C4.55 0 3 1.55 3 3.5v25c0 1.95 1.55 3.5 3.5 3.5h19c1.95 0 3.5 -1.55 3.5 -3.5V3.5c0 -1.95 -1.55 -3.5 -3.5 -3.5z" fill="#262626" stroke-width="0.5"></path>
  <path d="M25.9049085 22.2583225c0 -3.4079995 -7.1 -7.3129995 -7.1 -7.3129995s-7.099999 3.905 -7.099999 7.3129995c0 2.0353325 1.704 3.762999 3.763 3.762999 0.9939995 0 1.869666 -0.3786665 2.5323325 -0.9939995l-0.0946665 0.781c-0.1183335 0.8519995 -0.7099995 1.6329995 -1.5619995 1.7749995l-1.088667 0.2366665v1.325333h7.1v-1.325333l-1.1123335 -0.2129995c-0.852 -0.142 -1.443667 -0.9229995 -1.5620005 -1.775l-0.0946665 -0.7809995c0.662667 0.615333 1.538334 0.9939995 2.532334 0.9939995 2.082666 0 3.786666 -1.7513335 3.786666 -3.786666" fill="#4d5357" stroke-width="0.2365"></path>
  <path d="M6.5154075 5.503372V3.57003855h6.666667v1.49999995c-0.566667 0.5666665 -1.1 1.4 -1.666667 2.4666665 -0.5666665 1.066667 -1 2.2333335 -1.3 3.4333335s-0.433333 2.3 -0.433333 3.2333335h-1.866667c0.033335 -1.5 0.3333335 -3.0333335 0.866667 -4.566667 0.533333 -1.533333 1.2666665 -2.933333 2.2 -4.1666665l-4.466667 0.033335" fill="#4d5357" stroke-width="0.3335"></path>
</svg>