<svg xmlns="http://www.w3.org/2000/svg" version="1.1" viewBox="0 0 32 32" id="9-Of-Spades--Streamline-Emojitwo" height="32" width="32">
  <desc>
    9 Of Spades Streamline Emoji: https://streamlinehq.com
  </desc>
  <title>Playing Card Nine Of Spades</title>
  <path d="M6.5 31.25c-1.5 0 -2.75 -1.25 -2.75 -2.75V3.5c0 -1.5 1.25 -2.75 2.75 -2.75h19c1.5 0 2.75 1.25 2.75 2.75v25c0 1.5 -1.25 2.75 -2.75 2.75H6.5z" fill="#efeded" stroke-width="0.5"></path>
  <path d="M25.5 1.5c1.1 0 2 0.9 2 2v25c0 1.1 -0.9 2 -2 2H6.5c-1.1 0 -2 -0.9 -2 -2V3.5c0 -1.1 0.9 -2 2 -2h19m0 -1.5H6.5C4.55 0 3 1.55 3 3.5v25c0 1.95 1.55 3.5 3.5 3.5h19c1.95 0 3.5 -1.55 3.5 -3.5V3.5c0 -1.95 -1.55 -3.5 -3.5 -3.5z" fill="#262626" stroke-width="0.5"></path>
  <path d="M25.9049085 22.2583225c0 -3.4079995 -7.1 -7.3129995 -7.1 -7.3129995s-7.099999 3.905 -7.099999 7.3129995c0 2.0353325 1.704 3.762999 3.763 3.762999 0.9939995 0 1.869666 -0.3786665 2.5323325 -0.9939995l-0.0946665 0.781c-0.1183335 0.8519995 -0.7099995 1.6329995 -1.5619995 1.7749995l-1.088667 0.2366665v1.325333h7.1v-1.325333l-1.1123335 -0.2129995c-0.852 -0.142 -1.443667 -0.9229995 -1.5620005 -1.775l-0.0946665 -0.7809995c0.662667 0.615333 1.538334 0.9939995 2.532334 0.9939995 2.082666 0 3.786666 -1.7513335 3.786666 -3.786666" fill="#4d5357" stroke-width="0.2365"></path>
  <path d="M9.749197 3.55369765c-0.933332 0 -1.6998055 0.33346415 -2.2998045 0.96679685 -0.5999995 0.666666 -0.900391 1.4997405 -0.900391 2.5664065 0 0.999999 0.2995445 1.8334645 0.866211 2.466797 0.5666665 0.633333 1.2341805 0.966797 2.03418 0.966797 0.7333325 0 1.3331385 -0.2671885 1.7998045 -0.8671875 -0.0666665 1.1999985 -0.266537 2.000521 -0.533203 2.3671875 -0.266667 0.366666 -0.6000005 0.566406 -1 0.566406 -0.3333335 0 -0.566602 -0.133138 -0.7666015 -0.2998045l-1.3007815 1.2666015c0.4999995 0.4333325 1.133725 0.6660155 1.9003905 0.6660155 1.066666 0 1.966147 -0.4332695 2.6328125 -1.2666015 0.666666 -0.8333325 1 -2.232815 1 -4.1328125 0 -1.866665 -0.3326175 -3.2332045 -0.932617 -4.0332034 -0.666666 -0.83333255 -1.500001 -1.23339845 -2.5 -1.23339845zm-0.133789 1.66601535c0.3999995 0 0.7 0.166537 1 0.533203 0.2999995 0.366667 0.4335935 0.866668 0.4335935 1.5000005 0 0.5999995 -0.133724 1.033985 -0.4003905 1.3339845 -0.266666 0.3 -0.565951 0.466797 -0.932617 0.466797 -0.4 0 -0.7001305 -0.166797 -0.966797 -0.466797 -0.233333 -0.333333 -0.3671875 -0.833334 -0.3671875 -1.5 0 -0.6666665 0.1338545 -1.1335945 0.3671875 -1.433594 0.233333 -0.3 0.499544 -0.433594 0.866211 -0.433594z" fill="#4d5357" stroke-width="0.5"></path>
</svg>