<svg xmlns="http://www.w3.org/2000/svg" version="1.1" viewBox="0 0 32 32" id="King-Of-Spades-Emoji--Streamline-Emojitwo" height="32" width="32">
  <desc>
    King Of Spades Emoji Streamline Emoji: https://streamlinehq.com
  </desc>
  <title>Playing Card King Of Spades</title>
  <path d="M6.5 31.25c-1.5 0 -2.75 -1.25 -2.75 -2.75V3.5c0 -1.5 1.25 -2.75 2.75 -2.75h19c1.5 0 2.75 1.25 2.75 2.75v25c0 1.5 -1.25 2.75 -2.75 2.75H6.5z" fill="#efeded" stroke-width="0.5"></path>
  <path d="M25.5 1.5c1.1 0 2 0.9 2 2v25c0 1.1 -0.9 2 -2 2H6.5c-1.1 0 -2 -0.9 -2 -2V3.5c0 -1.1 0.9 -2 2 -2h19m0 -1.5H6.5C4.55 0 3 1.55 3 3.5v25c0 1.95 1.55 3.5 3.5 3.5h19c1.95 0 3.5 -1.55 3.5 -3.5V3.5c0 -1.95 -1.55 -3.5 -3.5 -3.5z" fill="#262626" stroke-width="0.5"></path>
  <path d="M26.363073 7.867045c0 -2.384 -4.9666675 -5.11566705 -4.9666675 -5.11566705S16.429739 5.483045 16.429739 7.867045c0 1.4237775 1.192 2.632333 2.6323335 2.632333 0.6953335 0 1.307889 -0.2648885 1.7714445 -0.695333l-0.066222 0.5463335c-0.082778 0.5959995 -0.4966665 1.142333 -1.0926665 1.2416665l-0.761556 0.1655555v0.927111h4.9666675v-0.927111l-0.7781115 -0.1489995c-0.596 -0.0993335 -1.0098895 -0.6456665 -1.092667 -1.241667l-0.0662225 -0.546333c0.463556 0.430444 1.076112 0.695333 1.7714455 0.695333 1.4568885 0 2.6488885 -1.2251115 2.6488885 -2.648889" fill="#4d5357" stroke-width="0.1655"></path>
  <g>
    <path d="m10.0676145 23.8750645 11.8398995 0c0 -6.3830325 -0.901134 -7.759765 -5.9324655 -7.759765 -4.9812685 0.0250315 -5.907434 1.3767325 -5.907434 7.759765" fill="#ffb300" stroke-width="0.5"></path>
    <path d="M21.4319155 22.4733005c-0.050063 0.250315 -0.100126 0.4755985 -0.150189 0.600756 -0.1251575 0.2252835 -0.3754725 0.3754725 -0.3754725 0.3754725s0.0750945 -0.4755985 0.050063 -1.151449c-0.2753465 -3.954977 -0.50063 -2.853591 -4.9312055 -2.853591 -4.405544 0 -4.655859 -1.0763545 -4.9312055 2.853591 -0.0250315 0.6758505 0.050063 1.151449 0.050063 1.151449s-0.250315 -0.1251575 -0.400504 -0.3754725c-0.0750945 -0.1251575 -0.1251575 -0.350441 -0.150189 -0.600756 -0.4255355 -0.100126 -0.951197 -0.0250315 -0.951197 1.1764805 0 0.7259135 0.2753465 1.351701 1.201512 1.401764 0.300378 2.3279295 1.652079 3.5294415 3.9299455 4.5307015 0.6257875 0.2753465 1.902394 0.2753465 2.50315 0 2.2778665 -1.0262915 3.6295675 -2.202772 3.9299455 -4.5307015 0.9261655 -0.0750945 1.201512 -0.6758505 1.201512 -1.401764 -0.0250315 -1.1764805 -0.5757245 -1.2766065 -0.9762285 -1.1764805" fill="#ffdd67" stroke-width="0.5"></path>
    <path d="M18.052663 27.0290335c0 0.851071 -1.0262915 1.2766065 -2.052583 1.2766065s-2.052583 -0.4255355 -2.052583 -1.2766065c0 0 0 -0.2252835 0.200252 -0.2252835l3.6796305 0c0.2252835 0 0.2252835 0.2252835 0.2252835 0.2252835" fill="#937237" stroke-width="0.5"></path>
    <path d="M13.2716465 22.1729225c-1.1264175 0 -1.602016 0.400504 -1.602016 0.8260395 0 0.400504 0 1.00126 1.50189 1.00126 1.451827 0 1.6771105 -0.1752205 1.6771105 -0.801008 0.0250315 -0.400504 -0.450567 -1.0262915 -1.5769845 -1.0262915" fill="#f5f5f5" stroke-width="0.5"></path>
    <path d="M14.398064 22.8738045c0 0.5757245 -0.450567 1.0262915 -1.0262915 1.0262915s-1.0262915 -0.450567 -1.0262915 -1.0262915 0.450567 -1.0262915 1.0262915 -1.0262915 1.0262915 0.4755985 1.0262915 1.0262915" fill="#664e27" stroke-width="0.5"></path>
    <path d="M13.7222135 22.8738045c0 0.200252 -0.150189 0.350441 -0.350441 0.350441s-0.350441 -0.150189 -0.350441 -0.350441 0.150189 -0.350441 0.350441 -0.350441c0.200252 0.0250315 0.350441 0.1752205 0.350441 0.350441" fill="#231f20" stroke-width="0.5"></path>
    <path d="M11.6696305 22.998962c0 -1.602016 3.204032 -1.602016 3.204032 0.2252835 -0.4755985 -1.3767325 -2.753465 -1.3767325 -3.204032 -0.2252835" fill="#664e27" stroke-width="0.5"></path>
    <path d="M18.7285135 22.1729225c1.151449 0 1.602016 0.400504 1.602016 0.8260395 0 0.400504 0 1.00126 -1.50189 1.00126 -1.451827 0 -1.6771105 -0.1752205 -1.6771105 -0.801008 0 -0.400504 0.450567 -1.0262915 1.5769845 -1.0262915" fill="#f5f5f5" stroke-width="0.5"></path>
    <path d="M17.602096 22.8738045c0 0.5757245 0.450567 1.0262915 1.0262915 1.0262915s1.0262915 -0.450567 1.0262915 -1.0262915 -0.450567 -1.0262915 -1.0262915 -1.0262915 -1.0262915 0.4755985 -1.0262915 1.0262915" fill="#664e27" stroke-width="0.5"></path>
    <path d="M18.2779465 22.8738045c0 0.200252 0.150189 0.350441 0.350441 0.350441s0.350441 -0.150189 0.350441 -0.350441 -0.150189 -0.350441 -0.350441 -0.350441c-0.200252 0.0250315 -0.350441 0.1752205 -0.350441 0.350441" fill="#231f20" stroke-width="0.5"></path>
    <path d="M20.3305295 22.998962c0 -1.602016 -3.204032 -1.602016 -3.204032 0.2252835 0.4755985 -1.3767325 2.753465 -1.3767325 3.204032 -0.2252835" fill="#664e27" stroke-width="0.5"></path>
    <path d="M16.00008 26.052805c-0.8260395 0 -1.251575 -0.750945 -0.8260395 -0.750945l1.6771105 0c0.400504 0 -0.0250315 0.750945 -0.851071 0.750945" fill="#eba352" stroke-width="0.5"></path>
    <g fill="#d9a000">
      <path d="m13.49693 16.29052 -1.00126 -1.00126 -1.00126 1.00126 0.50063 0 0 1.00126 1.50189 0zm7.00882 0 -1.00126 -1.00126 -1.00126 1.00126 0 1.00126 1.50189 0 0 -1.00126z" stroke-width="0.5"></path>
    </g>
    <path d="m21.50701 18.29304 -11.01386 0c0 -3.3291895 11.01386 -3.3291895 11.01386 0" fill="#9450e0" stroke-width="0.5"></path>
    <path d="m20.00512 18.29304 -9.01134 0c0 -2.6783705 9.01134 -2.6783705 9.01134 0" fill="#7e44bf" stroke-width="0.5"></path>
    <path d="m9.99252 19.2943 12.01512 0 0 1.50189 -12.01512 0z" fill="#d9a000" stroke-width="0.5"></path>
    <path d="m20.50575 16.79115 0.50063 0.50063 0 0.50063 -4.00504 0 0 -0.50063 0.50063 -0.50063 -1.50189 -2.00252 -1.50189 2.00252 0.50063 0.50063 0 0.50063 -4.00504 0 0 -0.50063 0.50063 -0.50063 -2.00252 -1.5269215 0.50063 5.0313315 12.01512 0 0.50063 -5.0313315z" fill="#ffce31" stroke-width="0.5"></path>
    <path d="m16.00008 19.79493 0 -0.7759765 0.50063 0z" fill="#66caf2" stroke-width="0.5"></path>
    <g fill="#428bc1">
      <path d="m16.00008 19.79493 -0.50063 -0.7759765 0.50063 0zm0.50063 -0.7759765 -0.50063 0 0 -0.7259135z" stroke-width="0.5"></path>
    </g>
    <g fill="#66caf2">
      <path d="m16.00008 18.29304 0 0.7259135 -0.50063 0zm-4.305418 1.50189 0 -0.7759765 0.4755985 0z" stroke-width="0.5"></path>
    </g>
    <g fill="#428bc1">
      <path d="m11.694662 19.79493 -0.5256615 -0.7759765 0.5256615 0zm0.4755985 -0.7759765 -0.4755985 0 0 -0.7259135z" stroke-width="0.5"></path>
    </g>
    <g fill="#66caf2">
      <path d="m11.694662 18.29304 0 0.7259135 -0.5256615 0zm2.152709 1.50189 0 -0.7759765 0.50063 0z" stroke-width="0.5"></path>
    </g>
    <g fill="#428bc1">
      <path d="m13.847371 19.79493 -0.50063 -0.7759765 0.50063 0zm0.50063 -0.7759765 -0.50063 0 0 -0.7259135z" stroke-width="0.5"></path>
    </g>
    <g fill="#66caf2">
      <path d="m13.847371 18.29304 0 0.7259135 -0.50063 0zm4.3304495 1.50189 0 -0.7759765 0.50063 0z" stroke-width="0.5"></path>
    </g>
    <g fill="#428bc1">
      <path d="m18.1778205 19.79493 -0.50063 -0.7759765 0.50063 0zm0.50063 -0.7759765 -0.50063 0 0 -0.7259135z" stroke-width="0.5"></path>
    </g>
    <g fill="#66caf2">
      <path d="m18.1778205 18.29304 0 0.7259135 -0.50063 0zm2.152709 1.50189 0 -0.7759765 0.50063 0z" stroke-width="0.5"></path>
    </g>
    <g fill="#428bc1">
      <path d="m20.3305295 19.79493 -0.50063 -0.7759765 0.50063 0zm0.50063 -0.7759765 -0.50063 0 0 -0.7259135z" stroke-width="0.5"></path>
    </g>
    <path d="m20.3305295 18.29304 0 0.7259135 -0.50063 0z" fill="#66caf2" stroke-width="0.5"></path>
    <path d="m9.99252 19.79493 -0.50063 -0.7759765 0.50063 0z" fill="#428bc1" stroke-width="0.5"></path>
    <g fill="#66caf2">
      <path d="m9.99252 18.29304 0 0.7259135 -0.50063 0zm12.01512 1.50189 0 -0.7759765 0.50063 0z" stroke-width="0.5"></path>
    </g>
    <path d="m22.50827 19.0189535 -0.50063 0 0 -0.7259135z" fill="#428bc1" stroke-width="0.5"></path>
  </g>
  <path d="M6.0145015 2.8847115h2v4l3.733333 -4h2.6l-3.9666665 3.9666665 4.1666665 5.7h-2.6l-2.9666665 -4.233333 -0.9666665 1v3.233333h-2V2.8847115" fill="#4d5357" stroke-width="0.3335"></path>
</svg>