<svg xmlns="http://www.w3.org/2000/svg" version="1.1" viewBox="0 0 32 32" id="Six-Of-Clubs--Streamline-Emojitwo" height="32" width="32">
  <desc>
    Six Of Clubs Streamline Emoji: https://streamlinehq.com
  </desc>
  <title>Playing Card Six Of Clubs</title>
  <path d="M6.5 31.25c-1.5 0 -2.75 -1.25 -2.75 -2.75V3.5c0 -1.5 1.25 -2.75 2.75 -2.75h19c1.5 0 2.75 1.25 2.75 2.75v25c0 1.5 -1.25 2.75 -2.75 2.75H6.5z" fill="#efeded" stroke-width="0.5"></path>
  <path d="M25.5 1.5c1.1 0 2 0.9 2 2v25c0 1.1 -0.9 2 -2 2H6.5c-1.1 0 -2 -0.9 -2 -2V3.5c0 -1.1 0.9 -2 2 -2h19m0 -1.5H6.5C4.55 0 3 1.55 3 3.5v25c0 1.95 1.55 3.5 3.5 3.5h19c1.95 0 3.5 -1.55 3.5 -3.5V3.5c0 -1.95 -1.55 -3.5 -3.5 -3.5z" fill="#262626" stroke-width="0.5"></path>
  <path d="M18.8049085 14.9467055c-2.094938 0.00847 -4.370718 2.763988 -2.2196665 5.742153 -2.1644775 -2.984729 -4.868499 -0.5937115 -4.868499 1.805831 0 1.963892 1.5850675 3.5489605 3.5489595 3.5489605 1.135745 0 2.1534935 -0.5443415 2.7923505 -1.3724875l-0.142126 1.159299c-0.118308 0.8518075 -0.710179 1.6332085 -1.561988 1.7751765l-1.0882365 0.213188v1.3251125h7.078413v-1.3251125l-1.0882365 -0.213188c-0.8518095 -0.141968 -1.4436805 -0.9233685 -1.561988 -1.7751765l-0.1421255 -1.159299c0.638856 0.828146 1.656605 1.372487 2.79235 1.372487 1.963892 0 3.548959 -1.585068 3.548959 -3.5489605 0 -2.399542 -2.7040215 -4.7905595 -4.8684985 -1.805831 2.151051 -2.978165 -0.124729 -5.7336845 -2.2196675 -5.7421525z" fill="#4d5357" stroke-width="0.7135"></path>
  <path d="M10.165147 3.570364c-1.066665 0 -1.9661465 0.433269 -2.632812 1.26660175 -0.666667 0.83333275 -1 2.23281475 -1 4.13281275 0 1.8666645 0.3334635 3.233204 0.966797 4.033203 0.6666655 0.833333 1.500001 1.2333985 2.4999995 1.2333985 0.9333325 0 1.6666025 -0.366667 2.2666015 -1 0.5999995 -0.6333325 0.899414 -1.4997405 0.899414 -2.5664065 0 -0.999999 -0.2995445 -1.8334635 -0.866211 -2.4667965 -0.566666 -0.6333325 -1.266407 -0.966797 -2.066406 -0.966797 -0.6999995 0 -1.299935 0.3003915 -1.7666015 0.900391 0.0666665 -1.199999 0.2665365 -1.999545 0.533203 -2.366211 0.2999995 -0.366667 0.6332035 -0.567383 1.033203 -0.567383 0.3000005 0 0.533399 0.099805 0.7333985 0.2998045l1.2666015 -1.266602c-0.466666 -0.433333 -1.100521 -0.6660155 -1.8671875 -0.6660155zm-0.1660155 5.166016c0.3999995 0 0.7001305 0.166797 0.966797 0.466797 0.2333335 0.3333325 0.366211 0.833334 0.366211 1.5s-0.1328775 1.133594 -0.366211 1.4335935c-0.2666665 0.2999995 -0.533724 0.433594 -0.9003905 0.433594 -0.366666 0 -0.666797 -0.166537 -0.966797 -0.5332035 -0.3 -0.3333335 -0.433594 -0.833334 -0.433594 -1.5 0 -0.599999 0.1337245 -1.0339845 0.400391 -1.333984 0.2666665 -0.3 0.566928 -0.466797 0.9335935 -0.466797z" fill="#4d5357" stroke-width="0.5"></path>
</svg>