<svg xmlns="http://www.w3.org/2000/svg" version="1.1" viewBox="0 0 32 32" id="Nine-Of-Clubs--Streamline-Emojitwo" height="32" width="32">
  <desc>
    Nine Of Clubs Streamline Emoji: https://streamlinehq.com
  </desc>
  <title>Playing Card Nine Of Clubs</title>
  <path d="M6.5 31.25c-1.5 0 -2.75 -1.25 -2.75 -2.75V3.5c0 -1.5 1.25 -2.75 2.75 -2.75h19c1.5 0 2.75 1.25 2.75 2.75v25c0 1.5 -1.25 2.75 -2.75 2.75H6.5z" fill="#efeded" stroke-width="0.5"></path>
  <path d="M25.5 1.5c1.1 0 2 0.9 2 2v25c0 1.1 -0.9 2 -2 2H6.5c-1.1 0 -2 -0.9 -2 -2V3.5c0 -1.1 0.9 -2 2 -2h19m0 -1.5H6.5C4.55 0 3 1.55 3 3.5v25c0 1.95 1.55 3.5 3.5 3.5h19c1.95 0 3.5 -1.55 3.5 -3.5V3.5c0 -1.95 -1.55 -3.5 -3.5 -3.5z" fill="#262626" stroke-width="0.5"></path>
  <path d="M18.8049085 14.9467055c-2.094938 0.00847 -4.370718 2.7639875 -2.219667 5.7421525 -2.164477 -2.984729 -4.8684985 -0.5937115 -4.8684985 1.805831 0 1.9638925 1.5850675 3.5489605 3.5489595 3.5489605 1.135745 0 2.1534935 -0.5443415 2.79235 -1.3724875l-0.1421255 1.159299c-0.118308 0.851808 -0.710179 1.6332085 -1.561988 1.7751765l-1.0882365 0.213188v1.3251125H22.344115v-1.3251125l-1.0882365 -0.213188c-0.851809 -0.1419675 -1.44368 -0.923368 -1.561988 -1.7751765l-0.1421255 -1.159299c0.6388565 0.828146 1.656605 1.3724875 2.79235 1.3724875 1.963892 0 3.5489595 -1.5850685 3.5489595 -3.5489605 0 -2.3995425 -2.7040215 -4.79056 -4.8684985 -1.805831 2.151051 -2.978165 -0.124729 -5.7336845 -2.2196675 -5.7421525z" fill="#4d5357" stroke-width="0.7135"></path>
  <path d="M9.749197 3.55369775c-0.933332 0 -1.6998055 0.333464 -2.2998045 0.9667965 -0.599999 0.66666625 -0.900391 1.49974075 -0.900391 2.56640675 0 0.999999 0.2995445 1.8334645 0.866211 2.466797 0.5666665 0.633333 1.2341805 0.966797 2.03418 0.966797 0.7333325 0 1.3331385 -0.2671885 1.7998045 -0.8671875 -0.0666665 1.1999985 -0.266537 2.000521 -0.533203 2.3671875 -0.266667 0.366666 -0.6000005 0.566406 -1 0.566406 -0.3333335 0 -0.566602 -0.133138 -0.7666015 -0.2998045l-1.300781 1.2666015c0.499999 0.4333325 1.1337245 0.6660155 1.90039 0.6660155 1.066666 0 1.966147 -0.4332695 2.6328125 -1.2666015 0.666666 -0.8333325 1 -2.232815 1 -4.1328125 0 -1.866665 -0.332617 -3.2332045 -0.932617 -4.03320375 -0.666666 -0.8333325 -1.5000005 -1.2333985 -2.5 -1.233398zm-0.133789 1.66601525c0.3999995 0 0.7 0.166537 1 0.533203 0.2999995 0.366667 0.4335935 0.866668 0.4335935 1.5000005 0 0.5999995 -0.133724 1.033985 -0.4003905 1.3339845 -0.266666 0.3 -0.565951 0.466797 -0.932617 0.466797 -0.4 0 -0.7001305 -0.166797 -0.966797 -0.466797 -0.233333 -0.333333 -0.3671875 -0.833334 -0.3671875 -1.5 0 -0.6666665 0.1338545 -1.1335945 0.3671875 -1.433594 0.233333 -0.3 0.499544 -0.433594 0.866211 -0.433594z" fill="#4d5357" stroke-width="0.5"></path>
</svg>