<svg xmlns="http://www.w3.org/2000/svg" version="1.1" viewBox="0 0 32 32" id="Ace-Of-Clubs--Streamline-Emojitwo" height="32" width="32">
  <desc>
    Ace Of Clubs Streamline Emoji: https://streamlinehq.com
  </desc>
  <title>Playing Card Ace Of Clubs</title>
  <path d="M6.5 31.25c-1.5 0 -2.75 -1.25 -2.75 -2.75V3.5c0 -1.5 1.25 -2.75 2.75 -2.75h19c1.5 0 2.75 1.25 2.75 2.75v25c0 1.5 -1.25 2.75 -2.75 2.75H6.5z" fill="#efeded" stroke-width="0.5"></path>
  <path d="M25.5 1.5c1.1 0 2 0.9 2 2v25c0 1.1 -0.9 2 -2 2H6.5c-1.1 0 -2 -0.9 -2 -2V3.5c0 -1.1 0.9 -2 2 -2h19m0 -1.5H6.5C4.55 0 3 1.55 3 3.5v25c0 1.95 1.55 3.5 3.5 3.5h19c1.95 0 3.5 -1.55 3.5 -3.5V3.5c0 -1.95 -1.55 -3.5 -3.5 -3.5z" fill="#262626" stroke-width="0.5"></path>
  <path d="M15.988166 8.9027665c-2.094938 0.00847 -4.370718 2.7639875 -2.219667 5.7421525 -2.164477 -2.984729 -4.8684985 -0.5937115 -4.8684985 1.805831 0 1.963892 1.5850675 3.5489605 3.5489595 3.5489605 1.135745 0 2.1534935 -0.5443415 2.79235 -1.3724875l-0.1421255 1.159299c-0.118308 0.851808 -0.710179 1.6332085 -1.561988 1.7751765l-1.0882365 0.213188v1.3251125h7.0784125v-1.3251125l-1.0882365 -0.213188c-0.851809 -0.141968 -1.44368 -0.9233685 -1.561988 -1.7751765l-0.1421255 -1.159299c0.6388565 0.828146 1.656605 1.3724875 2.79235 1.3724875 1.963892 0 3.5489595 -1.5850685 3.5489595 -3.5489605 0 -2.3995425 -2.7040215 -4.79056 -4.8684985 -1.805831 2.151051 -2.978165 -0.124729 -5.7336845 -2.2196675 -5.7421525z" fill="#4d5357" stroke-width="0.7135"></path>
</svg>