<svg xmlns="http://www.w3.org/2000/svg" version="1.1" viewBox="0 0 32 32" id="Ten-Of-Diamonds--Streamline-Emojitwo" height="32" width="32">
  <desc>
    Ten Of Diamonds Streamline Emoji: https://streamlinehq.com
  </desc>
  <title>Playing Card Ten Of Diamonds</title>
  <path d="M6.5 31.25c-1.5 0 -2.75 -1.25 -2.75 -2.75V3.5c0 -1.5 1.25 -2.75 2.75 -2.75h19c1.5 0 2.75 1.25 2.75 2.75v25c0 1.5 -1.25 2.75 -2.75 2.75H6.5z" fill="#efeded" stroke-width="0.5"></path>
  <path d="M6.5 31.25c-1.5 0 -2.75 -1.25 -2.75 -2.75V3.5c0 -1.5 1.25 -2.75 2.75 -2.75h19c1.5 0 2.75 1.25 2.75 2.75v25c0 1.5 -1.25 2.75 -2.75 2.75H6.5z" fill="#efeded" stroke-width="0.5"></path>
  <path d="M10.2333985 1.5C8.562082 3.1724945 6.7631195 4.5911171 4.5 5.083008v7.0673825c1.203002 2.393165 2.405562 4.787001 3.6103515 7.1953125C17.344911 21.0886735 19.71976 9.1473955 27.5 7.989258V2.0644531c-0.094382 -0.18775135 -0.188818 -0.3767105 -0.283203 -0.5644531Z" fill="#d0d0d0" stroke-width="0.5"></path>
  <path d="M25.5 1.5c1.1 0 2 0.9 2 2v25c0 1.1 -0.9 2 -2 2H6.5c-1.1 0 -2 -0.9 -2 -2V3.5c0 -1.1 0.9 -2 2 -2h19m0 -1.5H6.5C4.55 0 3 1.55 3 3.5v25c0 1.95 1.55 3.5 3.5 3.5h19c1.95 0 3.5 -1.55 3.5 -3.5V3.5c0 -1.95 -1.55 -3.5 -3.5 -3.5z" fill="#262626" stroke-width="0.5"></path>
  <path d="M4.5 14.666992v3.657227L10.631836 30.5h1.84082L4.5 14.666992z" fill="#3e4347" stroke-width="0.6045"></path>
  <path d="M9.11151308515 2.7704931344a0.790632804 0.790632804 0 0 0 -0.741536337 0.5169273359c-0.17640666755 0.47881766905 -0.50510600255 0.9241240046 -1.04817700525 1.3528643401 -0.5875323363 0.46384133565 -1.0801680054 0.741198337 -1.4791666741 0.865885671a0.790632804 0.790632804 0 0 0 -0.55468760275 0.75455700375l0 1.8333333425a0.790632804 0.790632804 0 0 0 1.0403646052 0.75000000375c0.5574530028 -0.1858176676 1.0911326721 -0.42582333545 1.593099008 -0.71809900355l0 6.10156269715a0.790632804 0.790632804 0 0 0 0.7903646706 0.7903646706l2.0664060103 0a0.790632804 0.790632804 0 0 0 0.79036467065 -0.7903646706l0 -2.538411346c0.1875940009 0.7553716704 0.477933669 1.3898256736 0.9134116712 1.89062500945 0.80849767075 0.929772338 1.9713713432 1.43815100715 3.263020683 1.43815100715 1.2755540064 0 2.37969534525 -0.4721923357 3.15234368245 -1.3261720066a0.790632804 0.790632804 0 0 0 0.01757666675 -0.02018333345c0.92702133795 -1.09556767215 1.2871110064 -2.7123453469 1.2871110064 -4.77734269055s-0.36008966845 -3.6817750184 -1.28710933975 -4.77734369055a0.790632804 0.790632804 0 0 0 -0.01757666675 -0.02018333345c-0.77265000385 -0.8539786709 -1.8767913427 -1.3261710066 -3.1523453491 -1.3261710066 -1.2758033397 0 -2.3924953453 0.479550669 -3.1647136825 1.37369800685a0.790632804 0.790632804 0 0 0 -0.00521 0.00651c-0.47804166905 0.5649586695 -0.8009506707 1.2718800064 -1.0065103384 2.1041666772l0 -2.69401001345a0.790632804 0.790632804 0 0 0 -0.79036300395 -0.7903646706zM15.744976785 6.0178891506c0.1091930005 0 0.1572903341 0.02523000015 0.2109373344 0.0540363336 0.02157333345 0.0245733335 0.1259130006 0.14740066745 0.2285156678 0.5065103359 0.0841336671 0.2944673348 0.16992200085 1.1108550055 0.16992200085 2.3157553449 0 1.190712006 -0.1063756672 2.02146667675 -0.20638033435 2.3964843453a0.790632804 0.790632804 0 0 0 -0.0032666667 0.01172000005c-0.0698843337 0.27953733475 -0.15825933415 0.3784106686 -0.20572933435 0.4179690021 -0.04715900025 0.0392990002 -0.0585880003 0.05013000025 -0.1940103343 0.05013000025s-0.1468513341 -0.01083 -0.1940103343 -0.05013000025a0.790632804 0.790632804 0 0 0 -0.067045667 -0.0501316669c0.0873176671 0.0582120003 -0.068240667 -0.0747803337 -0.17838533425 -0.46028633565 -0.0841336671 -0.2944673348 -0.16992200085 -1.1108550055 -0.16992200085 -2.3157553449 0 -1.15619467245 0.10269233385 -1.9804310099 0.2096353344 -2.408203012 0.06988433365 -0.27953733475 0.1582593341 -0.3784106686 0.20572933435 -0.41796900215 0.04715900025 -0.0392990002 0.0585880003 -0.05013000025 0.1940103343 -0.05013000025z" fill="#efeded" stroke-width="0.5"></path>
  <path d="M10.744977 14.2275245h-2.0333335V6.560858c-0.7333335 0.7 -1.6333335 1.2 -2.6333335 1.533333v-1.833333c0.5333335 -0.166667 1.1 -0.5 1.7333335 -1 0.6333335 -0.50000015 1.0666665 -1.0666668 1.3 -1.70000015h1.6666665V14.2275245zm5 -10.66666665c1.1 0 1.933333 0.36666665 2.5666665 1.0666667 0.7333335 0.86666645 1.1 2.29999995 1.1 4.26666645 0 1.966667 -0.3666665 3.4 -1.1 4.266667 -0.6333335 0.7 -1.4666665 1.0666665 -2.5666665 1.0666665s-2 -0.4 -2.666667 -1.1666665c-0.6666665 -0.766667 -1 -2.166667 -1 -4.166667 0 -1.9666665 0.366667 -3.3666665 1.1 -4.23333315 0.6333335 -0.73333335 1.466667 -1.1 2.566667 -1.1m0 1.66666665c-0.266667 0 -0.5 0.0666665 -0.7 0.2333335 -0.2 0.1666665 -0.366667 0.433333 -0.466667 0.833333 -0.133333 0.5333335 -0.233333 1.4 -0.233333 2.6 0 1.2333335 0.0666665 2.066667 0.2 2.5333335 0.133333 0.4666665 0.3 0.7666665 0.5 0.9 0.2 0.1666665 0.433333 0.2333335 0.7 0.2333335 0.2666665 0 0.5 -0.066667 0.7 -0.2333335s0.3666665 -0.4333335 0.4666665 -0.8333335c0.1333335 -0.5 0.2333335 -1.3666665 0.2333335 -2.6 0 -1.233333 -0.066667 -2.0666665 -0.2 -2.533333 -0.1333335 -0.466667 -0.3 -0.766667 -0.5 -0.9333335 -0.2 -0.1333335 -0.4333335 -0.2 -0.7 -0.2" fill="#ff5a79" stroke-width="0.3335"></path>
  <path d="m12.5198485 22.8587615 7.098855 -7.0983815 7.098382 7.0983815L19.6187035 29.95738z" fill="#ff5a79" stroke-width="0.237"></path>
</svg>