<svg xmlns="http://www.w3.org/2000/svg" version="1.1" viewBox="0 0 32 32" id="Four-Of-Diamonds--Streamline-Emojitwo" height="32" width="32">
  <desc>
    Four Of Diamonds Streamline Emoji: https://streamlinehq.com
  </desc>
  <title>Playing Card Four Of Diamonds</title>
  <path d="M6.5 31.25c-1.5 0 -2.75 -1.25 -2.75 -2.75V3.5c0 -1.5 1.25 -2.75 2.75 -2.75h19c1.5 0 2.75 1.25 2.75 2.75v25c0 1.5 -1.25 2.75 -2.75 2.75H6.5z" fill="#efeded" stroke-width="0.5"></path>
  <path d="M25.5 1.5c1.1 0 2 0.9 2 2v25c0 1.1 -0.9 2 -2 2H6.5c-1.1 0 -2 -0.9 -2 -2V3.5c0 -1.1 0.9 -2 2 -2h19m0 -1.5H6.5C4.55 0 3 1.55 3 3.5v25c0 1.95 1.55 3.5 3.5 3.5h19c1.95 0 3.5 -1.55 3.5 -3.5V3.5c0 -1.95 -1.55 -3.5 -3.5 -3.5z" fill="#262626" stroke-width="0.5"></path>
  <path d="M11.098741 14.236705v-2.133333h-4.5666665V10.336705l4.833333 -6.7666664h1.8000005V10.303372h1.3666665v1.8h-1.3666665v2.133333zm0 -3.933333v-3.6333335l-2.5666665 3.6333335z" fill="#ff5a79" stroke-width="0.3335"></path>
  <path d="m11.706292 22.0452035 7.0988525 -7.0983815 7.098382 7.0983815 -7.098382 7.0986185z" fill="#ff5a79" stroke-width="0.237"></path>
</svg>