<svg xmlns="http://www.w3.org/2000/svg" version="1.1" viewBox="0 0 32 32" id="Six-Of-Diamonds--Streamline-Emojitwo" height="32" width="32">
  <desc>
    Six Of Diamonds Streamline Emoji: https://streamlinehq.com
  </desc>
  <title>Playing Card Six Of Diamonds</title>
  <path d="M6.5 31.25c-1.5 0 -2.75 -1.25 -2.75 -2.75V3.5c0 -1.5 1.25 -2.75 2.75 -2.75h19c1.5 0 2.75 1.25 2.75 2.75v25c0 1.5 -1.25 2.75 -2.75 2.75H6.5z" fill="#efeded" stroke-width="0.5"></path>
  <path d="M25.5 1.5c1.1 0 2 0.9 2 2v25c0 1.1 -0.9 2 -2 2H6.5c-1.1 0 -2 -0.9 -2 -2V3.5c0 -1.1 0.9 -2 2 -2h19m0 -1.5H6.5C4.55 0 3 1.55 3 3.5v25c0 1.95 1.55 3.5 3.5 3.5h19c1.95 0 3.5 -1.55 3.5 -3.5V3.5c0 -1.95 -1.55 -3.5 -3.5 -3.5z" fill="#262626" stroke-width="0.5"></path>
  <path d="m11.7062895 22.0452035 7.098855 -7.0983815 7.0983845 7.0983815 -7.0983845 7.0986185z" fill="#ff5a79" stroke-width="0.237"></path>
  <path d="M10.165147 3.5703642c-1.066665 0 -1.9661465 0.4332689 -2.632812 1.26660155 -0.666667 0.83333225 -1 2.23281475 -1 4.13281275 0 1.8666645 0.3334635 3.233204 0.966797 4.033203 0.6666655 0.833333 1.500001 1.2333985 2.4999995 1.2333985 0.9333325 0 1.6666025 -0.366667 2.2666015 -1 0.5999995 -0.6333325 0.899414 -1.4997405 0.899414 -2.566406 0 -0.999999 -0.2995445 -1.833464 -0.866211 -2.466797 -0.566666 -0.6333325 -1.266407 -0.966797 -2.066406 -0.966797 -0.6999995 0 -1.299935 0.3003915 -1.7666015 0.900391 0.0666665 -1.199999 0.2665365 -1.9995455 0.533203 -2.3662115 0.2999995 -0.366667 0.6332035 -0.567383 1.033203 -0.567383 0.3000005 0 0.533399 0.099805 0.7333985 0.2998045l1.2666015 -1.2666012c-0.466666 -0.43333305 -1.100521 -0.6660156 -1.8671875 -0.6660156zM9.9991315 8.73638c0.3999995 0 0.7001305 0.1667975 0.966797 0.466797 0.233333 0.333333 0.366211 0.833334 0.366211 1.5 0 0.6666665 -0.1328775 1.133594 -0.366211 1.433594 -0.2666665 0.2999995 -0.533724 0.4335935 -0.9003905 0.4335935 -0.366666 0 -0.666797 -0.166537 -0.966797 -0.533203 -0.3 -0.3333335 -0.433594 -0.8333345 -0.433594 -1.5 0 -0.5999995 0.1337245 -1.033985 0.400391 -1.3339845 0.266667 -0.2999995 0.566928 -0.466797 0.9335935 -0.466797z" fill="#ff5a79" stroke-width="0.5"></path>
</svg>