<svg xmlns="http://www.w3.org/2000/svg" version="1.1" viewBox="0 0 32 32" id="Seven-Of-Diamonds--Streamline-Emojitwo" height="32" width="32">
  <desc>
    Seven Of Diamonds Streamline Emoji: https://streamlinehq.com
  </desc>
  <title>Playing Card Seven Of Diamonds</title>
  <path d="M6.5 31.25c-1.5 0 -2.75 -1.25 -2.75 -2.75V3.5c0 -1.5 1.25 -2.75 2.75 -2.75h19c1.5 0 2.75 1.25 2.75 2.75v25c0 1.5 -1.25 2.75 -2.75 2.75H6.5z" fill="#efeded" stroke-width="0.5"></path>
  <path d="M25.5 1.5c1.1 0 2 0.9 2 2v25c0 1.1 -0.9 2 -2 2H6.5c-1.1 0 -2 -0.9 -2 -2V3.5c0 -1.1 0.9 -2 2 -2h19m0 -1.5H6.5C4.55 0 3 1.55 3 3.5v25c0 1.95 1.55 3.5 3.5 3.5h19c1.95 0 3.5 -1.55 3.5 -3.5V3.5c0 -1.95 -1.55 -3.5 -3.5 -3.5z" fill="#262626" stroke-width="0.5"></path>
  <path d="M6.5154075 5.503372V3.57003855h6.666667v1.49999995c-0.566667 0.5666665 -1.1 1.4 -1.666667 2.4666665 -0.5666665 1.066667 -1 2.2333335 -1.3 3.4333335s-0.433333 2.3 -0.433333 3.2333335h-1.866667c0.033335 -1.5 0.3333335 -3.0333335 0.866667 -4.566667 0.533333 -1.533333 1.2666665 -2.933333 2.2 -4.1666665l-4.466667 0.033335" fill="#ff5a79" stroke-width="0.3335"></path>
  <path d="m11.7062905 22.0452035 7.098855 -7.0983815 7.098382 7.0983815 -7.098382 7.0986185z" fill="#ff5a79" stroke-width="0.237"></path>
</svg>