<svg xmlns="http://www.w3.org/2000/svg" version="1.1" viewBox="0 0 32 32" id="Nine-Of-Diamonds--Streamline-Emojitwo" height="32" width="32">
  <desc>
    Nine Of Diamonds Streamline Emoji: https://streamlinehq.com
  </desc>
  <title>Playing Card Nine Of Diamonds</title>
  <path d="M6.5 31.25c-1.5 0 -2.75 -1.25 -2.75 -2.75V3.5c0 -1.5 1.25 -2.75 2.75 -2.75h19c1.5 0 2.75 1.25 2.75 2.75v25c0 1.5 -1.25 2.75 -2.75 2.75H6.5z" fill="#efeded" stroke-width="0.5"></path>
  <path d="M25.5 1.5c1.1 0 2 0.9 2 2v25c0 1.1 -0.9 2 -2 2H6.5c-1.1 0 -2 -0.9 -2 -2V3.5c0 -1.1 0.9 -2 2 -2h19m0 -1.5H6.5C4.55 0 3 1.55 3 3.5v25c0 1.95 1.55 3.5 3.5 3.5h19c1.95 0 3.5 -1.55 3.5 -3.5V3.5c0 -1.95 -1.55 -3.5 -3.5 -3.5z" fill="#262626" stroke-width="0.5"></path>
  <path d="m11.7062905 22.0452035 7.098855 -7.0983815 7.098382 7.0983815 -7.098382 7.0986185z" fill="#ff5a79" stroke-width="0.237"></path>
  <path d="M9.749197 3.5536978c-0.933332 0 -1.6998055 0.33346395 -2.2998045 0.96679695 -0.599999 0.66666575 -0.900391 1.49974025 -0.900391 2.56640575 0 0.999999 0.2995445 1.8334645 0.866211 2.466797 0.566666 0.633333 1.2341805 0.966797 2.03418 0.966797 0.7333325 0 1.3331385 -0.2671885 1.7998045 -0.8671875 -0.0666665 1.1999985 -0.266537 2.000521 -0.533203 2.3671875 -0.266667 0.366666 -0.6000005 0.566406 -1 0.566406 -0.3333335 0 -0.566602 -0.133138 -0.7666015 -0.2998045l-1.300781 1.2666015c0.499999 0.4333325 1.1337245 0.6660155 1.90039 0.6660155 1.066666 0 1.966147 -0.4332695 2.6328125 -1.2666015 0.666666 -0.8333325 1 -2.232815 1 -4.1328125 0 -1.866665 -0.332617 -3.233204 -0.932617 -4.03320275 -0.666666 -0.8333325 -1.5000005 -1.23339845 -2.5 -1.23339845zm-0.133789 1.6660152c0.3999995 0 0.7 0.166537 1 0.533203 0.2999995 0.366667 0.4335935 0.866668 0.4335935 1.5 0 0.5999995 -0.133724 1.033985 -0.4003905 1.3339845 -0.266666 0.3 -0.565951 0.466797 -0.932617 0.466797 -0.4 0 -0.7001305 -0.166797 -0.966797 -0.466797 -0.233333 -0.333333 -0.3671875 -0.833334 -0.3671875 -1.5s0.1338545 -1.133594 0.3671875 -1.4335935c0.233333 -0.3 0.499544 -0.433594 0.866211 -0.433594z" fill="#ff5a79" stroke-width="0.5"></path>
</svg>