<svg xmlns="http://www.w3.org/2000/svg" version="1.1" viewBox="0 0 32 32" id="Three-Of-Hearts--Streamline-Emojitwo" height="32" width="32">
  <desc>
    Three Of Hearts Streamline Emoji: https://streamlinehq.com
  </desc>
  <title>Playing Card Three Of Hearts</title>
  <path d="M6.5 31.25c-1.5 0 -2.75 -1.25 -2.75 -2.75V3.5c0 -1.5 1.25 -2.75 2.75 -2.75h19c1.5 0 2.75 1.25 2.75 2.75v25c0 1.5 -1.25 2.75 -2.75 2.75H6.5z" fill="#efeded" stroke-width="0.5"></path>
  <path d="M25.5 1.5c1.1 0 2 0.9 2 2v25c0 1.1 -0.9 2 -2 2H6.5c-1.1 0 -2 -0.9 -2 -2V3.5c0 -1.1 0.9 -2 2 -2h19m0 -1.5H6.5C4.55 0 3 1.55 3 3.5v25c0 1.95 1.55 3.5 3.5 3.5h19c1.95 0 3.5 -1.55 3.5 -3.5V3.5c0 -1.95 -1.55 -3.5 -3.5 -3.5z" fill="#262626" stroke-width="0.5"></path>
  <path d="m6.5320745 11.2700385 1.8666665 -0.233333c0.0666665 0.5 0.2333335 0.8666665 0.4666665 1.133333 0.2333335 0.266667 0.566667 0.4 0.9333335 0.4 0.4 0 0.7333335 -0.1666665 1 -0.4666665 0.2666665 -0.3000005 0.4 -0.733334 0.4 -1.2666665 0 -0.5 -0.1333335 -0.9 -0.4 -1.2s-0.5666665 -0.4333335 -0.9666665 -0.4333335c-0.2333335 0 -0.5333335 0.033335 -0.866667 0.1333335l0.2 -1.6333335c0.5333335 0 0.9333335 -0.1 1.2 -0.3666665 0.266667 -0.266667 0.4 -0.566667 0.4 -1 0 -0.366667 -0.1 -0.6333335 -0.3 -0.8333335s-0.4666665 -0.3 -0.8 -0.3c-0.333333 0 -0.6 0.133333 -0.833333 0.3666665 -0.2333335 0.2333335 -0.366667 0.6 -0.4333335 1.0333335l-1.7666665 -0.3c0.133333 -0.6333335 0.3 -1.1333335 0.5666665 -1.50000025 0.2333335 -0.3666667 0.6 -0.6666667 1.0333335 -0.9000002 0.433333 -0.2 0.933333 -0.333333 1.5 -0.333333 0.933333 0 1.7 0.3 2.2666655 0.933333 0.46667 0.50000045 0.7 1.10000045 0.7 1.73333395 0 0.933333 -0.466665 1.633333 -1.4333325 2.2 0.566667 0.133333 1.0333325 0.4 1.3666675 0.866666 0.333335 0.4333335 0.5 1 0.5 1.6333335 0 0.933333 -0.333335 1.7 -0.9666655 2.333333 -0.5666685 0.6333335 -1.366669 0.966667 -2.3333355 0.966667 -0.9 0 -1.666667 -0.266667 -2.2666665 -0.8 -0.6 -0.566667 -0.9333335 -1.266667 -1.033333 -2.166667" fill="#ff5a79" stroke-width="0.3335"></path>
  <path d="M22.141204 14.946822c-1.490685 0 -2.7447535 0.85182 -3.3362955 2.0822265 -0.5915415 -1.2304065 -1.84561 -2.0822265 -3.336295 -2.0822265 -2.058565 0 -3.762205 1.7509635 -3.762205 3.762205 0 3.4309415 7.0985 10.434795 7.0985 10.434795s7.0985005 -7.0038535 7.0985005 -10.434795c0 -2.0112415 -1.70364 -3.762205 -3.762205 -3.762205z" fill="#ff5a79" stroke-width="0.2365"></path>
</svg>