<svg xmlns="http://www.w3.org/2000/svg" version="1.1" viewBox="0 0 32 32" id="Six-Of-Hearts--Streamline-Emojitwo" height="32" width="32">
  <desc>
    Six Of Hearts Streamline Emoji: https://streamlinehq.com
  </desc>
  <title>Playing Card Six Of Hearts</title>
  <path d="M6.5 31.25c-1.5 0 -2.75 -1.25 -2.75 -2.75V3.5c0 -1.5 1.25 -2.75 2.75 -2.75h19c1.5 0 2.75 1.25 2.75 2.75v25c0 1.5 -1.25 2.75 -2.75 2.75H6.5z" fill="#efeded" stroke-width="0.5"></path>
  <path d="M25.5 1.5c1.1 0 2 0.9 2 2v25c0 1.1 -0.9 2 -2 2H6.5c-1.1 0 -2 -0.9 -2 -2V3.5c0 -1.1 0.9 -2 2 -2h19m0 -1.5H6.5C4.55 0 3 1.55 3 3.5v25c0 1.95 1.55 3.5 3.5 3.5h19c1.95 0 3.5 -1.55 3.5 -3.5V3.5c0 -1.95 -1.55 -3.5 -3.5 -3.5z" fill="#262626" stroke-width="0.5"></path>
  <path d="M10.165039 3.5703125c-1.0666655 0 -1.9661465 0.4332689 -2.6328125 1.26660155 -0.6666665 0.83333245 -1 2.23281445 -1 4.13281245 0 1.8666645 0.333464 3.233204 0.966797 4.033203 0.666666 0.833333 1.500001 1.2333985 2.5 1.2333985 0.9333325 0 1.666602 -0.366667 2.2666015 -1 0.5999995 -0.6333325 0.899414 -1.4997405 0.899414 -2.566406 0 -0.999999 -0.299545 -1.833464 -0.866211 -2.466797 -0.566666 -0.6333325 -1.266407 -0.966797 -2.066406 -0.966797 -0.6999995 0 -1.299935 0.3003915 -1.7666015 0.900391 0.0666665 -1.199999 0.2665365 -1.999545 0.533203 -2.366211 0.2999995 -0.366667 0.6332035 -0.567383 1.033203 -0.567383 0.3 0 0.5333985 0.099805 0.7333985 0.2998045l1.2666015 -1.2666014c-0.4666665 -0.43333305 -1.100521 -0.6660156 -1.8671875 -0.6660156zm-0.1660155 5.1660155c0.3999995 0 0.7001305 0.1667975 0.966797 0.466797 0.233333 0.333333 0.3662105 0.833334 0.3662105 1.5 0 0.6666665 -0.1328775 1.133594 -0.3662105 1.433594 -0.2666665 0.2999995 -0.533724 0.4335935 -0.900391 0.4335935 -0.366666 0 -0.666797 -0.166537 -0.9667965 -0.533203 -0.3 -0.3333335 -0.433594 -0.8333345 -0.433594 -1.5 0 -0.5999995 0.1337245 -1.033985 0.4003905 -1.3339845 0.266667 -0.2999995 0.566928 -0.466797 0.933594 -0.466797z" fill="#ff5a79" stroke-width="0.5"></path>
  <path d="M22.1412045 14.946822c-1.4906845 0 -2.744753 0.85182 -3.336295 2.0822265 -0.591542 -1.2304065 -1.84561 -2.0822265 -3.336295 -2.0822265 -2.058565 0 -3.762205 1.7509635 -3.762205 3.762205 0 3.4309415 7.0985 10.434795 7.0985 10.434795S25.90341 22.1399685 25.90341 18.709027c0 -2.0112415 -1.70364 -3.762205 -3.7622055 -3.762205z" fill="#ff5a79" stroke-width="0.2365"></path>
</svg>