<svg xmlns="http://www.w3.org/2000/svg" version="1.1" viewBox="0 0 32 32" id="Jack-Of-Hearts--Streamline-Emojitwo" height="32" width="32">
  <desc>
    Jack Of Hearts Streamline Emoji: https://streamlinehq.com
  </desc>
  <title>Playing Card Jack Of Hearts</title>
  <path d="M6.5 31.25c-1.5 0 -2.75 -1.25 -2.75 -2.75V3.5c0 -1.5 1.25 -2.75 2.75 -2.75h19c1.5 0 2.75 1.25 2.75 2.75v25c0 1.5 -1.25 2.75 -2.75 2.75H6.5z" fill="#efeded" stroke-width="0.5"></path>
  <path d="M25.5 1.5c1.1 0 2 0.9 2 2v25c0 1.1 -0.9 2 -2 2H6.5c-1.1 0 -2 -0.9 -2 -2V3.5c0 -1.1 0.9 -2 2 -2h19m0 -1.5H6.5C4.55 0 3 1.55 3 3.5v25c0 1.95 1.55 3.5 3.5 3.5h19c1.95 0 3.5 -1.55 3.5 -3.5V3.5c0 -1.95 -1.55 -3.5 -3.5 -3.5z" fill="#262626" stroke-width="0.5"></path>
  <g>
    <path d="m9.5 23.2885 13 0c0 -7 -1 -8.5 -6.5 -8.5s-6.5 1.5 -6.5 8.5z" fill="#ffb300" stroke-width="0.5"></path>
    <path d="M21.95 21.7635c-0.05 0.275 -0.1 0.525 -0.175 0.675 -0.15 0.25 -0.425 0.4 -0.425 0.4s0.075 -0.525 0.05 -1.25c-0.3 -4.35 -0.55 -3.15 -5.4 -3.15s-5.1 -1.2 -5.4 3.125c-0.025 0.725 0.05 1.275 0.05 1.275s-0.275 -0.15 -0.425 -0.4c-0.075 -0.15 -0.125 -0.4 -0.175 -0.675 -0.45 -0.125 -1.05 -0.025 -1.05 1.275 0 0.8 0.3 1.475 1.325 1.55 0.325 2.55 1.825 3.85 4.3 4.975 0.675 0.3 2.075 0.3 2.75 0 2.5 -1.125 3.975 -2.425 4.3 -4.975 1.025 -0.075 1.325 -0.725 1.325 -1.55 0 -1.3 -0.6 -1.4 -1.05 -1.275" fill="#ffdd67" stroke-width="0.5"></path>
    <path d="M18.25 26.5135c0 0.85 -1.125 1.275 -2.25 1.275s-2.25 -0.425 -2.25 -1.275c0 0 0 -0.225 0.225 -0.225l4.05 0c0.225 0 0.225 0.225 0.225 0.225" fill="#937237" stroke-width="0.5"></path>
    <path d="M13 21.4385c-1.25 0 -1.75 0.45 -1.75 0.9s0 1.1 1.65 1.1c1.6 0 1.85 -0.2 1.85 -0.875 0 -0.45 -0.5 -1.125 -1.75 -1.125" fill="#f5f5f5" stroke-width="0.5"></path>
    <path fill="#664e27" d="M12 22.1885a1.125 1.125 0 1 0 2.25 0 1.125 1.125 0 1 0 -2.25 0" stroke-width="0.5"></path>
    <path d="M13.5 22.1885c0 0.2 -0.175 0.375 -0.375 0.375s-0.375 -0.175 -0.375 -0.375 0.175 -0.375 0.375 -0.375 0.375 0.175 0.375 0.375" fill="#231f20" stroke-width="0.5"></path>
    <path d="M11.25 22.3135c0 -1.75 3.5 -1.75 3.5 0.25 -0.5 -1.5 -3 -1.5 -3.5 -0.25" fill="#664e27" stroke-width="0.5"></path>
    <path d="M19 21.4385c1.25 0 1.75 0.45 1.75 0.9s0 1.1 -1.65 1.1c-1.6 0 -1.85 -0.2 -1.85 -0.875 0 -0.45 0.5 -1.125 1.75 -1.125" fill="#f5f5f5" stroke-width="0.5"></path>
    <path fill="#664e27" d="M17.75 22.1885a1.125 1.125 0 1 0 2.25 0 1.125 1.125 0 1 0 -2.25 0" stroke-width="0.5"></path>
    <path d="M18.5 22.1885c0 0.2 0.175 0.375 0.375 0.375s0.375 -0.175 0.375 -0.375 -0.175 -0.375 -0.375 -0.375 -0.375 0.175 -0.375 0.375" fill="#231f20" stroke-width="0.5"></path>
    <path d="M20.75 22.3135c0 -1.75 -3.5 -1.75 -3.5 0.25 0.5 -1.5 3 -1.5 3.5 -0.25" fill="#664e27" stroke-width="0.5"></path>
    <path d="M16 25.5385c-1.05 0 -1.575 -0.75 -1.05 -0.75l2.1 0c0.525 0 0 0.75 -1.05 0.75" fill="#eba352" stroke-width="0.5"></path>
  </g>
  <path d="M8.150378 8.7847115v0.2333335c0 0.733333 0.1 1.2666665 0.233333 1.5666665 0.1333335 0.3 0.4333335 0.4666665 0.9 0.4666665 0.4333335 0 0.7333335 -0.1666665 0.9 -0.5 0.1 -0.2 0.1333335 -0.533333 0.1333335 -1V2.75137795h2.0333335V9.4847115c0 0.8333335 -0.1333335 1.4666665 -0.4333335 1.9666665 -0.4666665 0.8 -1.3333335 1.2333335 -2.5333335 1.2333335s-2.0666665 -0.3333335 -2.4666665 -1c-0.4333335 -0.6666665 -0.6333335 -1.5666665 -0.6333335 -2.7v-0.2333335h1.866667z" fill="#ff5a79" stroke-width="0.3335"></path>
  <path d="M23.238969 2.75137795c-1.043 0 -1.920446 0.596 -2.334335 1.4568888 -0.413889 -0.8608888 -1.2913335 -1.4568888 -2.3343335 -1.4568888 -1.4403335 0 -2.6323335 1.22511125 -2.6323335 2.63233355 0 2.4005555 4.966667 7.301 4.966667 7.301s4.9666685 -4.9004445 4.9666685 -7.301c0 -1.4072223 -1.192 -2.63233355 -2.6323335 -2.63233355z" fill="#ff5a79" stroke-width="0.1655"></path>
</svg>