<svg xmlns="http://www.w3.org/2000/svg" version="1.1" viewBox="0 0 32 32" id="Queen-Of-Hearts--Streamline-Emojitwo" height="32" width="32">
  <desc>
    Queen Of Hearts Streamline Emoji: https://streamlinehq.com
  </desc>
  <title>Playing Card Queen Of Hearts</title>
  <path d="M6.5 31.25c-1.5 0 -2.75 -1.25 -2.75 -2.75V3.5c0 -1.5 1.25 -2.75 2.75 -2.75h19c1.5 0 2.75 1.25 2.75 2.75v25c0 1.5 -1.25 2.75 -2.75 2.75H6.5z" fill="#efeded" stroke-width="0.5"></path>
  <path d="M25.5 1.5c1.1 0 2 0.9 2 2v25c0 1.1 -0.9 2 -2 2H6.5c-1.1 0 -2 -0.9 -2 -2V3.5c0 -1.1 0.9 -2 2 -2h19m0 -1.5H6.5C4.55 0 3 1.55 3 3.5v25c0 1.95 1.55 3.5 3.5 3.5h19c1.95 0 3.5 -1.55 3.5 -3.5V3.5c0 -1.95 -1.55 -3.5 -3.5 -3.5z" fill="#262626" stroke-width="0.5"></path>
  <g>
    <path d="M16 14.7885c-4.525 0 -7 2.85 -7 6.625l0 8.375 14 0 0 -8.375c0 -5.6 -3.8 -5.5 -3.8 -5.5s-0.275 -1.125 -3.2 -1.125z" fill="#ffb300" stroke-width="0.5"></path>
    <path d="M10.6 24.4635s-1.1 -0.275 -1.1 -1.875c0 -1.275 0.825 -1.475 0.825 -1.475 7.55 -0.025 9.675 -1.575 9.675 -1.575s0.475 1.55 1.65 1.55c0 0 0.85 0.15 0.85 1.475 0 1.6 -1.125 1.875 -1.125 1.875 -0.025 2.425 -3.35 5.35 -5.375 5.35s-5.4 -2.925 -5.4 -5.325" fill="#ffdd67" stroke-width="0.5"></path>
    <path d="M16 26.0385c-1.05 0 -1.575 -0.75 -1.05 -0.75l2.1 0c0.525 0 0 0.75 -1.05 0.75" fill="#eba352" stroke-width="0.5"></path>
    <path d="M17.575 23.8385c-0.375 0 -0.325 -0.45 -0.325 -0.45 0.55 -2.875 3.75 -1.35 3.75 -1.35 0.25 0.5 -0.575 1.725 -0.8 1.8 -1.05 0.25 -2.625 0 -2.625 0" fill="#f5f5f5" stroke-width="0.5"></path>
    <path d="M20.125 22.6635c0 0.625 -0.5 1.125 -1.125 1.125s-1.125 -0.5 -1.125 -1.125 0.5 -1.125 1.125 -1.125 1.125 0.5 1.125 1.125" fill="#664e27" stroke-width="0.5"></path>
    <path fill="#2b2925" d="M18.625 22.6635a0.375 0.375 0 1 0 0.75 0 0.375 0.375 0 1 0 -0.75 0" stroke-width="0.5"></path>
    <path d="M17.25 23.3635c0.55 -3.425 3.375 -1.15 4.5 -1.625 -1.125 1.075 -3.375 -1.225 -4.5 1.625" fill="#3b3226" stroke-width="0.5"></path>
    <path d="M14.425 23.8385c0.375 0 0.325 -0.45 0.325 -0.45 -0.55 -2.875 -3.75 -1.35 -3.75 -1.35 -0.25 0.5 0.575 1.725 0.8 1.8 1.05 0.25 2.625 0 2.625 0" fill="#f5f5f5" stroke-width="0.5"></path>
    <path d="M11.875 22.6635c0 0.625 0.5 1.125 1.125 1.125s1.125 -0.5 1.125 -1.125 -0.5 -1.125 -1.125 -1.125 -1.125 0.5 -1.125 1.125" fill="#664e27" stroke-width="0.5"></path>
    <path d="M14.75 23.3635c-0.55 -3.425 -3.375 -1.15 -4.5 -1.625 1.125 1.075 3.375 -1.225 4.5 1.625" fill="#3b3226" stroke-width="0.5"></path>
    <path d="m16 27.2885 -2.5 -0.375c1.5 2.125 3.5 2.125 5 0z" fill="#f085a9" stroke-width="0.5"></path>
    <path d="M16.975 26.8135c-0.725 -0.275 -0.975 0.175 -0.975 0.175s-0.25 -0.45 -0.975 -0.175c-0.575 0.225 -1.525 0.1 -1.525 0.1 1 0.225 1.125 0.625 2.5 0.625s1.5 -0.425 2.5 -0.625c0 0 -0.95 0.125 -1.525 -0.1" fill="#d46c8f" stroke-width="0.5"></path>
    <path fill="#2b2925" d="M12.625 22.6635a0.375 0.375 0 1 0 0.75 0 0.375 0.375 0 1 0 -0.75 0" stroke-width="0.5"></path>
    <g fill="#d9a000">
      <path d="m13.496875 14.7885 -1.00125 -1.00125 -1.00125 1.00125 0.500625 0 0 1.00125 1.501875 0zm7.00875 0 -1.00125 -1.00125 -1.00125 1.00125 0 1.00125 1.501875 0 0 -1.00125z" stroke-width="0.5"></path>
    </g>
    <path d="m21.50688375 16.79100325 -11.01376755 0c0 -3.3291615 11.01376755 -3.3291615 11.01376755 0" fill="#9450e0" stroke-width="0.5005"></path>
    <path d="m20.0050065 16.79100325 -9.0112645 0c0 -2.678348 9.0112645 -2.678348 9.0112645 0" fill="#7e44bf" stroke-width="0.5005"></path>
    <path d="m9.99249045 17.79225475 12.0150193 0 0 1.5018775 -12.0150193 0z" fill="#d9a000" stroke-width="0.5005"></path>
    <path d="m20.50563225 15.28912575 0.50062575 0.50062575 0 0.500626 -4.00500625 0 0 -0.500626 0.50062575 -0.50062575L16 13.2866225l-1.50187725 2.00250325 0.50062575 0.50062575 0 0.500626 -4.0050065 0 0 -0.500626 0.50062575 -0.50062575 -2.00250305 -1.52690875 0.50062575 5.0312895 12.0150193 0 0.5006245 -5.0312895z" fill="#ffce31" stroke-width="0.5005"></path>
    <path d="m16 18.2928805 0 -0.77597 0.50062575 0z" fill="#66caf2" stroke-width="0.5005"></path>
    <g fill="#428bc1">
      <path d="m16 18.292875 -0.500625 -0.77596875 0.500625 0zm0.500625 -0.77596875 -0.500625 0L16 16.791z" stroke-width="0.5"></path>
    </g>
    <g fill="#66caf2">
      <path d="m16 16.791 0 0.72590625 -0.500625 0zm-4.305375 1.501875 0 -0.77596875 0.47559375 0z" stroke-width="0.5"></path>
    </g>
    <g fill="#428bc1">
      <path d="m11.694625 18.292875 -0.52565625 -0.77596875 0.52565625 0zm0.47559375 -0.77596875 -0.47559375 0 0 -0.72590625z" stroke-width="0.5"></path>
    </g>
    <g fill="#66caf2">
      <path d="m11.694625 16.791 0 0.72590625 -0.52565625 0zm2.1526875 1.501875 0 -0.77596875 0.500625 0z" stroke-width="0.5"></path>
    </g>
    <g fill="#428bc1">
      <path d="m13.8473125 18.292875 -0.500625 -0.77596875 0.500625 0zm0.500625 -0.77596875 -0.500625 0 0 -0.72590625z" stroke-width="0.5"></path>
    </g>
    <g fill="#66caf2">
      <path d="m13.8473125 16.791 0 0.72590625 -0.500625 0zm4.33040625 1.501875 0 -0.77596875 0.500625 0z" stroke-width="0.5"></path>
    </g>
    <g fill="#428bc1">
      <path d="m18.17771875 18.292875 -0.500625 -0.77596875 0.500625 0zm0.500625 -0.77596875 -0.500625 0 0 -0.72590625z" stroke-width="0.5"></path>
    </g>
    <g fill="#66caf2">
      <path d="m18.17771875 16.791 0 0.72590625 -0.500625 0zm2.1526875 1.501875 0 -0.77596875 0.500625 0z" stroke-width="0.5"></path>
    </g>
    <g fill="#428bc1">
      <path d="m20.33040625 18.292875 -0.500625 -0.77596875 0.500625 0zm0.500625 -0.77596875 -0.500625 0 0 -0.72590625z" stroke-width="0.5"></path>
    </g>
    <path d="m20.33041325 16.79100325 0 0.72590725 -0.50062575 0z" fill="#66caf2" stroke-width="0.5005"></path>
    <path d="m9.99249045 18.2928805 -0.50062575 -0.77597 0.50062575 0z" fill="#428bc1" stroke-width="0.5005"></path>
    <g fill="#66caf2">
      <path d="m9.9925 16.791 0 0.72590625 -0.500625 0zm12.015 1.501875 0 -0.77596875 0.500625 0z" stroke-width="0.5"></path>
    </g>
    <path d="m22.50813425 17.5169105 -0.5006245 0 0 -0.72590725z" fill="#428bc1" stroke-width="0.5005"></path>
  </g>
  <path d="M14.42138 9.501378c-0.1666665 0.566667 -0.433333 1 -0.7666665 1.366667l1.1 1.033333 -1.0333335 1.1333335 -1.1666665 -1.1c-0.3666665 0.2 -0.6666665 0.3666665 -0.9333335 0.4666665 -0.433333 0.1333335 -0.9666665 0.2333335 -1.5666665 0.2333335 -1.2666665 0 -2.3 -0.3666665 -3.1333335 -1.1333335 -0.9999995 -0.9 -1.4999995 -2.233333 -1.4999995 -4 0 -1.7666665 0.5 -3.10000005 1.5333335 -4.00000005 0.833333 -0.733333 1.8666665 -1.1 3.133333 -1.1s2.3 0.4 3.133333 1.166667c0.9666675 0.9 1.466667 2.16666655 1.466667 3.80000005 0.033335 0.833333 -0.066667 1.5666665 -0.266667 2.133333m-3.6666665 1.3c0.1333335 -0.033335 0.2666665 -0.1 0.4666665 -0.1666665l-1 -0.9333335 1.0333335 -1.1 0.9666665 0.9333335c0.166667 -0.3 0.266667 -0.6 0.3333335 -0.8333335 0.1 -0.3666665 0.1333335 -0.7666665 0.1333335 -1.233333 0 -1.1 -0.2333335 -1.9333335 -0.666667 -2.5 -0.433333 -0.60000005 -1.1 -0.90000005 -1.933333 -0.90000005 -0.8 0 -1.4333335 0.3 -1.9 0.86666655 -0.466667 0.5666665 -0.7333335 1.4333335 -0.7333335 2.5666665 0 1.3333335 0.3333335 2.266667 1.0333335 2.8333335 0.433333 0.3666665 0.9666665 0.5666665 1.6 0.5666665 0.233333 0 0.4666665 -0.033335 0.6666665 -0.1" fill="#ff5a79" stroke-width="0.3335"></path>
  <path d="M23.73074 2.7513775c-1.0429995 0 -1.920446 0.596 -2.3343345 1.456889 -0.4138895 -0.860889 -1.291334 -1.456889 -2.3343335 -1.456889 -1.440334 0 -2.632334 1.2251115 -2.632334 2.632334 0 2.4005555 4.9666675 7.301 4.9666675 7.301s4.9666685 -4.9004445 4.9666685 -7.301c0 -1.4072225 -1.192 -2.6323335 -2.632334 -2.632334z" fill="#ff5a79" stroke-width="0.1655"></path>
</svg>